<?xml version="1.0" encoding="UTF-8"?>
<svg id="Layer_2" data-name="Layer 2" xmlns="http://www.w3.org/2000/svg" viewBox="0 0 1490.081 687.715">
  <g id="Layer_1-2" data-name="Layer 1">
    <g>
      <g>
        <path d="M734.695,608.943c-19.267,10.878-39.224,18.567-59.881,23.066-20.664,4.5-41.707,6.758-63.143,6.758-25.164,0-48.231-4.274-69.201-12.815-20.97-8.541-38.911-20.504-53.823-35.882-14.912-15.378-26.562-33.705-34.95-54.988-8.388-21.275-12.582-44.503-12.582-69.667s4.194-48.304,12.582-69.434c8.388-21.123,20.038-39.377,34.95-54.755,14.912-15.379,32.853-27.414,53.823-36.115,20.97-8.694,44.037-13.048,69.201-13.048,49.083,0,88.693,15.225,118.83,45.668l-22.368,23.3c-4.973-5.897-11.111-11.417-18.407-16.543-7.303-5.126-15.225-9.473-23.766-13.048-8.548-3.568-17.475-6.364-26.795-8.389-9.32-2.017-18.487-3.028-27.494-3.028-21.436,0-40.775,3.728-58.017,11.184-17.242,7.456-31.921,17.708-44.037,30.756-12.116,13.048-21.436,28.426-27.96,46.134s-9.786,36.814-9.786,57.318,3.262,39.61,9.786,57.318,15.844,33.086,27.96,46.134c12.116,13.048,26.795,23.3,44.037,30.756,17.242,7.456,36.581,11.185,58.017,11.185,17.708,0,34.324-1.398,49.862-4.194,15.531-2.796,29.664-7.922,42.406-15.378v-110.908h-79.22v-27.96h109.976v156.576Z" fill="#ff9a00" stroke-width="0"/>
        <path d="M803.663,465.415c0-25.164,4.194-48.304,12.582-69.434,8.388-21.123,20.038-39.377,34.95-54.755,14.912-15.379,32.853-27.414,53.823-36.115,20.97-8.694,44.037-13.048,69.201-13.048s48.231,4.354,69.201,13.048c20.97,8.701,38.911,20.736,53.823,36.115,14.912,15.378,26.562,33.632,34.95,54.755,8.388,21.13,12.582,44.27,12.582,69.434s-4.194,48.392-12.582,69.667c-8.388,21.283-20.038,39.61-34.95,54.988-14.912,15.378-32.853,27.341-53.823,35.882-20.97,8.541-44.037,12.815-69.201,12.815s-48.231-4.274-69.201-12.815c-20.97-8.541-38.911-20.504-53.823-35.882-14.912-15.378-26.562-33.705-34.95-54.988-8.388-21.275-12.582-44.503-12.582-69.667ZM834.419,465.415c0,20.504,3.262,39.61,9.786,57.318s15.844,33.086,27.96,46.134c12.116,13.048,26.795,23.3,44.037,30.756,17.242,7.456,36.581,11.185,58.017,11.185s40.775-3.729,58.017-11.185c17.242-7.456,31.921-17.708,44.037-30.756s21.436-28.426,27.96-46.134,9.786-36.814,9.786-57.318-3.262-39.61-9.786-57.318-15.844-33.086-27.96-46.134-26.795-23.3-44.037-30.756c-17.242-7.456-36.581-11.184-58.017-11.184s-40.775,3.728-58.017,11.184c-17.242,7.456-31.921,17.708-44.037,30.756-12.116,13.048-21.436,28.426-27.96,46.134s-9.786,36.814-9.786,57.318Z" fill="#ff9a00" stroke-width="0"/>
        <path d="M1209.549,300.451h102.054c28.579,0,52.811,3.495,72.696,10.485,19.878,6.989,36.421,15.924,49.629,26.795,13.201,10.878,23.605,22.914,31.222,36.114,7.609,13.209,13.201,25.863,16.776,37.979,3.568,12.116,5.825,23.067,6.757,32.853.932,9.786,1.398,16.703,1.398,20.737s-.466,10.951-1.398,20.737-3.189,20.736-6.757,32.853c-3.575,12.116-9.167,24.778-16.776,37.979-7.616,13.208-18.021,25.244-31.222,36.115-13.208,10.878-29.751,19.805-49.629,26.795-19.885,6.989-44.117,10.484-72.696,10.484h-102.054v-329.928ZM1240.305,602.418h63.376c21.742,0,42.093-2.716,61.046-8.155,18.946-5.432,35.416-13.746,49.396-24.931,13.98-11.184,25.004-25.396,33.086-42.639,8.075-17.242,12.116-37.666,12.116-61.279s-4.042-44.037-12.116-61.279c-8.082-17.241-19.106-31.455-33.086-42.639s-30.45-19.492-49.396-24.931c-18.953-5.432-39.304-8.155-61.046-8.155h-63.376v274.008Z" fill="#ff9a00" stroke-width="0"/>
      </g>
      <g>
        <path d="M217.426,188.354c-13.048,16.776-27.341,28.506-42.872,35.183-15.538,6.677-33.552,10.019-54.056,10.019-17.089,0-32.467-3.029-46.134-9.087-13.674-6.058-25.244-14.213-34.717-24.465-9.48-10.252-16.776-22.368-21.902-36.348s-7.689-28.892-7.689-44.736c0-16.776,2.796-32.227,8.388-46.367,5.592-14.133,13.354-26.249,23.3-36.348,9.939-10.092,21.742-17.941,35.416-23.533,13.667-5.592,28.579-8.388,44.736-8.388,15.218,0,29.198,2.563,41.94,7.689,12.735,5.126,23.686,12.582,32.853,22.368,9.16,9.786,16.23,21.749,21.203,35.882,4.966,14.141,7.456,30.217,7.456,48.231v11.65H49.2c.619,9.32,2.869,18.254,6.757,26.795,3.881,8.548,8.927,16.004,15.145,22.368,6.21,6.371,13.514,11.417,21.902,15.145,8.388,3.728,17.548,5.592,27.494,5.592,15.844,0,29.198-2.796,40.076-8.388,10.871-5.592,20.657-13.82,29.358-24.698l27.494,21.436ZM186.204,99.348c-.626-18.64-6.684-33.552-18.174-44.736-11.497-11.184-27.341-16.776-47.532-16.776s-36.508,5.592-48.93,16.776c-12.429,11.184-19.885,26.096-22.368,44.736h137.004Z" fill="#ff9a00" stroke-width="0"/>
        <path d="M281.734,61.602c0-9.939-.313-19.259-.932-27.96-.626-8.694-.932-16.616-.932-23.766h34.484c0,5.905.153,11.81.466,17.708.306,5.905.466,11.963.466,18.174h.932c2.483-5.279,5.978-10.405,10.485-15.378,4.5-4.966,9.859-9.393,16.077-13.281,6.211-3.881,13.201-6.99,20.97-9.32,7.762-2.33,16.15-3.495,25.164-3.495,14.286,0,26.635,2.177,37.047,6.524,10.405,4.354,19.026,10.412,25.863,18.174,6.83,7.769,11.883,17.169,15.145,28.193,3.262,11.031,4.893,23.067,4.893,36.115v134.674h-36.348V97.018c0-18.327-4.042-32.773-12.116-43.338-8.082-10.558-20.664-15.844-37.746-15.844-11.81,0-21.982,2.024-30.523,6.058-8.548,4.041-15.538,9.786-20.97,17.242-5.439,7.456-9.48,16.31-12.116,26.562-2.643,10.252-3.961,21.596-3.961,34.018v106.248h-36.348V61.602Z" fill="#ff9a00" stroke-width="0"/>
        <path d="M724.262,103.62v109.586c-5.446,3.351-11.618,6.28-18.526,8.792-6.908,2.512-14.081,4.661-21.509,6.437-7.433,1.776-14.969,3.086-22.608,3.925-7.644.834-14.812,1.256-21.509,1.256-18.84,0-35.639-3.14-50.397-9.42-14.758-6.28-27.215-14.758-37.366-25.434-10.156-10.676-17.898-23.079-23.236-37.209-5.338-14.13-8.007-29.045-8.007-44.745,0-16.534,2.875-31.92,8.635-46.158,5.755-14.233,13.708-26.582,23.864-37.052,10.151-10.465,22.343-18.683,36.581-24.649,14.233-5.966,29.83-8.949,46.786-8.949,20.513,0,37.258,2.566,50.24,7.693,12.977,5.132,23.864,12.197,32.656,21.195l-21.352,22.922c-9.214-8.792-18.948-14.915-29.202-18.369-10.259-3.454-21.038-5.181-32.342-5.181-12.771,0-24.286,2.355-34.54,7.065-10.259,4.71-19.051,11.044-26.376,18.997-7.33,7.958-12.982,17.324-16.956,28.103-3.979,10.784-5.966,22.245-5.966,34.383,0,12.56,2.198,24.232,6.594,35.011,4.396,10.784,10.465,20.15,18.212,28.103,7.742,7.958,16.848,14.184,27.318,18.683,10.465,4.504,21.872,6.751,34.226,6.751,10.676,0,20.773-.991,30.301-2.983,9.523-1.987,17.633-4.867,24.335-8.635v-61.858h-49.298v-28.26h79.442Z" fill="#ff9a00" stroke-width="0"/>
        <path d="M782.326,37.836c11.184-11.49,24.465-19.958,39.843-25.397,15.378-5.432,30.989-8.155,46.833-8.155,32.307,0,55.607,7.616,69.9,22.834,14.286,15.225,21.436,38.373,21.436,69.434v93.666c0,6.218.306,12.662.932,19.339.619,6.685,1.398,12.815,2.33,18.407h-34.95c-1.245-4.966-1.944-10.485-2.097-16.543-.16-6.058-.233-11.417-.233-16.077h-.932c-7.15,11.184-16.703,20.351-28.659,27.494-11.963,7.143-26.329,10.718-43.105,10.718-11.184,0-21.669-1.398-31.455-4.194-9.786-2.796-18.334-6.91-25.63-12.349-7.303-5.432-13.128-12.188-17.475-20.271-4.354-8.075-6.524-17.395-6.524-27.96,0-18.014,4.66-32.154,13.98-42.406,9.32-10.252,20.89-17.861,34.717-22.834,13.82-4.966,28.732-8.075,44.736-9.32,15.997-1.238,30.676-1.864,44.037-1.864h13.98v-6.524c0-15.844-4.74-27.8-14.213-35.882-9.48-8.075-22.761-12.116-39.843-12.116-11.81,0-23.38,1.944-34.717,5.825-11.344,3.888-21.363,9.866-30.057,17.941l-22.834-23.766ZM887.642,123.114c-23.3,0-41.787,3.262-55.454,9.786-13.674,6.524-20.504,17.242-20.504,32.154,0,13.674,4.58,23.38,13.747,29.125,9.16,5.752,20.577,8.621,34.251,8.621,10.558,0,19.805-1.784,27.727-5.359,7.922-3.568,14.519-8.308,19.805-14.213,5.279-5.898,9.32-12.815,12.116-20.737,2.796-7.922,4.347-16.383,4.66-25.397v-13.98h-36.348Z" fill="#ff9a00" stroke-width="0"/>
        <path d="M1210.407,103.62v109.586c-5.446,3.351-11.618,6.28-18.526,8.792-6.908,2.512-14.081,4.661-21.509,6.437-7.433,1.776-14.969,3.086-22.608,3.925-7.644.834-14.812,1.256-21.509,1.256-18.84,0-35.639-3.14-50.397-9.42-14.758-6.28-27.215-14.758-37.366-25.434-10.156-10.676-17.898-23.079-23.236-37.209-5.338-14.13-8.007-29.045-8.007-44.745,0-16.534,2.875-31.92,8.635-46.158,5.755-14.233,13.708-26.582,23.864-37.052,10.151-10.465,22.343-18.683,36.581-24.649,14.233-5.966,29.83-8.949,46.786-8.949,20.513,0,37.258,2.566,50.24,7.693,12.977,5.132,23.864,12.197,32.656,21.195l-21.352,22.922c-9.214-8.792-18.948-14.915-29.202-18.369-10.259-3.454-21.038-5.181-32.342-5.181-12.771,0-24.286,2.355-34.54,7.065-10.259,4.71-19.051,11.044-26.376,18.997-7.33,7.958-12.982,17.324-16.956,28.103-3.979,10.784-5.966,22.245-5.966,34.383,0,12.56,2.198,24.232,6.594,35.011,4.396,10.784,10.465,20.15,18.212,28.103,7.742,7.958,16.848,14.184,27.318,18.683,10.465,4.504,21.872,6.751,34.226,6.751,10.676,0,20.773-.991,30.301-2.983,9.523-1.987,17.633-4.867,24.335-8.635v-61.858h-49.298v-28.26h79.442Z" fill="#ff9a00" stroke-width="0"/>
        <path d="M1466.055,188.354c-13.048,16.776-27.341,28.506-42.872,35.183-15.538,6.677-33.552,10.019-54.056,10.019-17.089,0-32.467-3.029-46.134-9.087-13.674-6.058-25.244-14.213-34.717-24.465-9.48-10.252-16.776-22.368-21.902-36.348s-7.689-28.892-7.689-44.736c0-16.776,2.796-32.227,8.388-46.367,5.592-14.133,13.354-26.249,23.3-36.348,9.939-10.092,21.742-17.941,35.416-23.533,13.667-5.592,28.579-8.388,44.736-8.388,15.218,0,29.198,2.563,41.94,7.689,12.735,5.126,23.686,12.582,32.853,22.368,9.16,9.786,16.23,21.749,21.203,35.882,4.966,14.141,7.456,30.217,7.456,48.231v11.65h-176.148c.619,9.32,2.869,18.254,6.757,26.795,3.881,8.548,8.927,16.004,15.145,22.368,6.21,6.371,13.514,11.417,21.902,15.145,8.388,3.728,17.548,5.592,27.494,5.592,15.844,0,29.198-2.796,40.076-8.388,10.871-5.592,20.657-13.82,29.358-24.698l27.494,21.436ZM1434.833,99.348c-.626-18.64-6.684-33.552-18.174-44.736-11.497-11.184-27.341-16.776-47.532-16.776s-36.508,5.592-48.93,16.776c-12.429,11.184-19.885,26.096-22.368,44.736h137.004Z" fill="#ff9a00" stroke-width="0"/>
      </g>
      <path d="M201.997,687.715C90.615,687.715,0,597.1,0,485.718s90.615-201.997,201.997-201.997c60.958,0,118.039,27.121,156.608,74.408l-18.416,15.021c-34.036-41.73-84.406-65.664-138.192-65.664-98.277,0-178.232,79.955-178.232,178.232s79.955,178.232,178.232,178.232v23.765Z" fill="#005d3c" stroke-width="0"/>
      <rect x="201.997" y="663.514" width="1286" height="24" fill="#005d3c" stroke-width="0"/>
      <path d="M286.736,632.514h-8.979c-7.846,0-14.826-6.006-17.377-14.952l-57.043-200.048h-.923l-50.423,199.308c-2.358,9.322-9.492,15.692-17.575,15.692h-9.957c-8.115,0-15.273-6.407-17.621-15.774l-59.064-235.608c-3.573-14.251,5.274-28.619,17.621-28.619h.738c8.3,0,15.58,6.679,17.792,16.325l45.807,199.675h.926l51.986-200.386c2.41-9.29,9.546-15.614,17.619-15.614h10.905c8.04,0,15.156,6.275,17.593,15.514l52.871,200.486h.778l45.306-199.522c2.195-9.658,9.475-16.354,17.78-16.354h0c12.351,0,21.209,14.359,17.657,28.622l-58.762,235.96c-2.341,9.4-17.657,15.294-17.657,15.294Z" fill="#005d3c" stroke="#005d3c" stroke-miterlimit="10"/>
    </g>
  </g>
</svg>